<?xml version="1.0" encoding="utf-8"?>
<!-- Generator: Adobe Illustrator 18.0.0, SVG Export Plug-In . SVG Version: 6.00 Build 0)  -->
<!DOCTYPE svg PUBLIC "-//W3C//DTD SVG 1.1//EN" "http://www.w3.org/Graphics/SVG/1.1/DTD/svg11.dtd">
<svg version="1.1" id="图层_1" xmlns="http://www.w3.org/2000/svg" xmlns:xlink="http://www.w3.org/1999/xlink" x="0px" y="0px"
	 viewBox="0 0 595.275 261.986" enable-background="new 0 0 595.275 261.986" xml:space="preserve">
<g>
	<path d="M396.637,100.054h17.65v24.463h-17.65V100.054z M421.668,93.344h-46.374v6.71h13.962v24.463h-16v6.71h16v41.028h7.382
		v-41.028h17.648v40.166h13.94v-6.712h-6.558V93.344z"/>
	<rect x="293.03" y="153.492" width="36.587" height="6.709"/>
	<path d="M284.21,116.154h-9.399v-15.933h9.399V116.154z M274.811,122.194h9.399v16.06h-9.399V122.194z M268.102,141.073
		c0,12.201-0.987,21.463-3.017,29.671c-0.214,0.76,0.016,0.962,0.414,0.962h6.729c2.246-11.273,2.539-20.627,2.579-27.413h9.404
		v20.862h-6.68c-0.323,0-0.576,0.211-0.404,0.676l1.839,6.033h11.94V93.512h-22.804V141.073z"/>
	<path d="M323.993,120.713c1.607,2.645,3.337,4.952,5.125,6.978h-21.966c1.705-1.968,3.356-4.263,4.894-6.978H323.993z
		 M332.207,120.713h9.009v-6.04h-26.25c0.792-1.929,1.504-3.999,2.155-6.24h22.448v-6.039h-6.576
		c1.094-3.731,2.387-8.135,2.463-8.39c0.13-0.446-0.104-0.619-0.394-0.619h-5.714l-2.647,9.009h-8.075
		c0.752-3.491,1.41-7.358,2.006-11.698c0.069-0.503-0.202-0.603-0.535-0.603h-6.503c-0.665,4.611-1.36,8.585-2.25,12.301h-3.962
		l-2.646-9.009h-5.713c-0.29,0-0.525,0.173-0.393,0.619c0.074,0.255,1.367,4.659,2.461,8.39h-6.404v6.039h14.956
		c-0.608,1.908-1.501,4.153-2.457,6.24h-14.145v6.04h10.625c-4.284,6.081-8.863,8.88-10.689,9.998v6.908
		c0,0.348,0.275,0.718,1.367,0.098c1.985-1.126,4.105-2.401,6.253-3.987h24.991l-0.211,9.044h-19.731l0.299-5.407
		c0-0.233-0.168-0.409-0.408-0.409h-6.311l-0.635,11.447c0,0.234,0.17,0.408,0.409,0.408h34.043v16.331h-15.344
		c-0.324,0-0.575,0.211-0.404,0.676l1.838,6.033h21.29v-29.079h-8.334l0.274-11.743c3.117,2.898,6.28,5.055,9.154,6.686
		c1.092,0.62,1.367,0.25,1.367-0.098v-6.908C341.06,129.593,336.488,126.787,332.207,120.713"/>
	<path d="M379.974,148.825c-0.125,0.095-6.385,4.839-12.445,9.43v-43.621h-17.245v7.38h9.913v41.797
		c-2.362,1.789-3.963,3.003-3.963,3.003l4.049,5.35l20.357-15.423v-7.601C380.639,148.777,380.236,148.624,379.974,148.825"/>
	<path d="M361.17,108.025h8.067c0.357,0,0.502-0.388,0.345-0.628c-0.146-0.223-10.177-15.54-10.177-15.54h-8.065
		c-0.305,0-0.526,0.353-0.358,0.612C351.15,92.725,361.17,108.025,361.17,108.025"/>
	<rect x="443.83" y="95.134" width="58.251" height="7.382"/>
	<path d="M464.957,130.411h45.329v-7.381h-74.659v7.381h20.713c-4.279,11.233-15.014,39.425-15.089,39.629
		c-0.118,0.326,0.097,0.569,0.38,0.569h64.397c0.305,0,0.478-0.301,0.371-0.585c-0.068-0.178-9.601-25.245-9.601-25.245h-8.018
		c-0.304,0-0.485,0.295-0.384,0.562c0.101,0.267,6.795,17.885,6.795,17.885h-42.697L464.957,130.411z"/>
	<path fill="#00A4FF" d="M231.766,125.847c-6.581-6.709-15.752-10.938-25.947-10.938c-8.814,0-16.403,3.037-23.027,8.433
		c-2.888,2.351-5.918,5.167-9.729,8.869c-1.893,1.838-56.773,55.091-56.773,55.091c2.876,0.408,6.834,0.532,10.361,0.552
		c3.305,0.022,66.361,0.016,69.001,0.016c5.311,0,8.768-0.006,12.483-0.277c8.517-0.622,16.563-3.746,23.067-10.133
		C245.647,163.276,245.863,140.255,231.766,125.847 M221.218,167.253c-2.799,2.77-7.792,5.915-15.988,6.194
		c-3.789,0.13-8.216,0.143-10.24,0.143c-2.21,0-21.698,0-44.038,0c16.023-15.562,29.999-29.137,31.584-30.675
		c1.452-1.413,4.72-4.538,7.538-7.075c6.185-5.57,11.754-6.69,15.693-6.655c6.171,0.059,11.783,2.578,15.795,6.647
		C230.144,144.604,229.939,158.622,221.218,167.253"/>
	<path fill="#00C7D9" d="M143.222,122.423c-6.45-4.828-13.672-7.525-21.86-7.514c-10.196,0-19.368,4.229-25.949,10.938
		c-14.097,14.408-13.88,37.429,0.563,51.612c5.8,5.693,12.824,8.792,20.315,9.839l14.131-13.712
		c-2.284-0.009-5.562-0.04-8.473-0.138c-8.195-0.279-13.188-3.425-15.987-6.195c-8.724-8.631-8.925-22.65-0.344-31.42
		c4.012-4.069,9.624-6.589,15.796-6.647c3.865-0.015,9.113,1.108,15.044,6.024c2.831,2.346,9.116,7.871,11.874,10.358
		c0.14,0.125,0.309,0.137,0.475,0.002l9.729-9.493c0.167-0.163,0.157-0.384-0.008-0.534
		C153.848,131.314,147.215,125.396,143.222,122.423"/>
	<path fill="#006EFF" d="M209.644,106.669c-6.714-18.964-24.792-32.552-46.055-32.552c-24.39,0-44.603,17.934-48.262,41.298
		c1.962-0.332,3.977-0.506,6.034-0.506c2.864-0.005,5.606,0.33,8.241,0.964c0.052,0.01,0.104,0.016,0.155,0.029
		c3.304-15.774,17.249-27.491,33.832-27.491c13.813,0,25.928,8.33,31.391,20.134c0.086,0.186,0.232,0.248,0.381,0.208
		c4.107-1.129,9.034-1.787,13.79-1.436C209.616,107.353,209.793,107.091,209.644,106.669"/>
</g>
</svg>
